:::::::::  PRESENTS ::::::::::

 
http://i.imgur.com/TaEz6UQ.jpg


:::: Chashme Baddoor 2013 Hindi DVDSCR-Rip XviD-UYIRVANI ::::


::Information::


Release Date
5 Apr 2013

Genre
Comedy

IMDB  
http://www.imdb.com/title/tt2229848/

Star Cast
Ali Zafar
Siddharth
Divyendu Sharma
Tapsee Pannu
Rishi Kapoor
Juhi Chawla
Anupam Kher
Sonu Nigam
Lilette Dubey
Bharti Achrekar
Ayaz Khan


General

Format : AVI
Format/Info : Audio Video Interleave
File size : 697 MiB
Duration : 1h 52mn
Overall bit rate : 866 Kbps
Writing application : VirtualDubMod 1.5.10.2 (build 2540/release)
Writing library : VirtualDubMod build 2540/release

Video
ID : 0
Format : MPEG-4 Visual
Format profile : Advanced Simple@L5
Format settings, BVOP : Yes
Format settings, QPel : No
Format settings, GMC : No warppoints
Format settings, Matrix : Default (H.263)
Codec ID : XVID
Codec ID/Hint : XviD
Duration : 1h 52mn
Bit rate : 776 Kbps
Width : 624 pixels
Height : 288 pixels
Display aspect ratio : 2.2:1
Frame rate : 25.000 fps
Color space : YUV
Chroma subsampling : 4:2:0
Bit depth : 8 bits
Scan type : Progressive
Bits/(Pixel*Frame) : 0.173
Stream size : 624 MiB (90%)
Writing library : XviD 1.2.1 (UTC 2008-12-04)

Audio
ID : 1
Format : MPEG Audio
Format version : Version 1
Format profile : Layer 3
Mode : Joint stereo
Mode extension : MS Stereo
Codec ID : 55
Codec ID/Hint : MP3
Duration : 1h 52mn
Bit rate mode : Constant
Bit rate : 80.0 Kbps
Channel(s) : 2 channels
Sampling rate : 32.0 KHz
Stream size : 64.4 MiB (9%)
Alignment : Aligned on interleaves
Interleave, duration : 40 ms (1.00 video frame)
Interleave, preload duration : 504 ms


::Poster::

 
http://i.imgur.com/37Yj8c4.jpg


::Screenshots::

 
http://i.imgur.com/a5h5AYK.png

 
http://i.imgur.com/zQkPdo7.png

 
http://i.imgur.com/KCGfBxA.png


SEED AND ENJOY!